<svg xmlns="http://www.w3.org/2000/svg"
  viewBox="0 0 638.6 69.3">
<defs>
  <style>.cls-1{fill:#fff;stroke:#606060;stroke-miterlimit:10;}</style>
</defs>
<title>Asset 1</title>
<g id="Layer_2" data-name="Layer 2">
  <g id="Capa_1" data-name="Capa 1">
    <path class="cls-1" d="M109.9,68.8H82.6V14.1H68.9V68.8H41.5V14.1H27.8V68.8H.5V.5H103V7.3h6.8V68.8Z"/>
    <path class="cls-1" d="M185.4,68.8H158.1V41.5H144.4V68.8H117.1V7.3h6.8V.5h54.6V7.3h6.8V68.8ZM158,27.8V14.1H144.3V27.8Z"/>
    <path class="cls-1" d="M260.8,68.8H233.5V41.5H219.8V68.8H192.5V.5H254V7.3h6.8V27.8H254V41.5h6.8Zm-27.3-41V14.1H219.8V27.8Z"/>
    <path class="cls-1" d="M336.3,68.8H274.8V62H268V7.3h6.8V.5h61.5V14.2h-41v41h41Z"/>
    <path class="cls-1" d="M411.7,68.8H384.4V41.5H370.7V68.8H343.4V7.3h6.8V.5h54.7V7.3h6.8Zm-27.3-41V14.1H370.7V27.8Z"/>
    <path class="cls-1" d="M487.2,62h-6.8v6.8H418.9V.5h61.5V7.3h6.8Zm-27.4-6.9v-41H446.1v41Z"/>
    <path class="cls-1" d="M562.6,62h-6.8v6.8H501.1V62h-6.8V7.3h6.8V.5h54.7V7.3h6.8Zm-27.3-6.9v-41H521.6v41Z"/>
    <path class="cls-1" d="M638.1,68.8H610.8V41.5H597.1V68.8H569.8V.5h61.5V7.3h6.8V27.8h-6.8V41.5h6.8Zm-27.3-41V14.1H597.1V27.8Z"/>
  </g>
  </g>
  </svg>